<svg xmlns="http://www.w3.org/2000/svg" width="120.715" height="50.872" viewBox="0 0 120.715 50.872">
  <path id="gropu_7789" data-name="group 7789" d="M63.771,204.981H16.29c-3.733,0-9.072-2.625-11.618-4.14-5.556-3.312-6.061,5.8-2.02,6.625,2.654.545,6.636.3,11.745.057a129.428,129.428,0,0,1,25.129.771c10.567,1.482,21.226,30.131,27.793,30.959,3.283.414,5.834-12.272,13.036-22.741s28.435-8.156,40.361-9.342c-25.7-1.055-22.773-18.262-29.668-18.751-.271-.019-.537-.029-.8-.029-11.142,0-18.072,16.591-26.473,16.591" transform="translate(0 -188.39)" fill="#afe6df"/>
</svg>
