<svg xmlns="http://www.w3.org/2000/svg" width="179.256" height="81.035" viewBox="0 0 179.256 81.035">
  <path id="group_7788" data-name="group 7788" d="M658.834,157.42c-8.772,5.084-18.762,3.595-27.279.021,6.852,4.648,13.444,8.984,19.917,8.984,10.256,0,15.817-10.6,25.484-9.7,14.724,1.385,23.785,23.551,32.28,22.858S724.328,152.2,733.956,152.2c11.9,0,14.357,33.621,33.045,33.621s24.352-35.326,38.51-38.789a11.242,11.242,0,0,1,5.3-.014c-17.046-4.4-22.568-12.392-26.2-20.531-.006-.007-.006-.014-.011-.021a78.94,78.94,0,0,1-4.094-9.677c0-.007-.006-.007-.006-.014-.374-1.025-.742-2.071-1.11-3.124v-.007c-8.618-12.849-18.167,3.726-28.525,20.3-7.946,12.715-15.962,14.926-24.8,14.358-10.76-.693-14-5.428-22.927-24.9-4.661-7.883-9.27-16.693-16.678-18.619-15.7.63-11.887,46.776-27.625,52.636" transform="translate(-631.555 -104.784)" fill="#afe6df"/>
</svg>
