<svg xmlns="http://www.w3.org/2000/svg" width="245.38" height="78.582" viewBox="0 0 245.38 78.582">
  <path id="group7789" data-name="group 7789" d="M126.3,216.215h89.939c7.071,0,17.184-4.4,22.006-6.944,10.525-5.555,11.481,9.722,3.827,11.111-5.028.913-12.57.5-22.247.1-12.55-.53-28.691-1.06-47.6,1.293-20.016,2.486-31.574,33.332-44.012,34.721-6.219.695-11.721-2.778-18.179-6.25s-13.873-6.944-23.92-6.25-19.7,6.541-29.048,13.569c-.029.028-.048.041-.076.07-1.253.944-2.507,1.917-3.75,2.889,0,0-.01,0-.019.014-2.105,1.652-4.191,3.347-6.267,5.028-.287.236-.574.458-.861.694-14.39,7.167-26.08-41.529-44.378-50.04,32.617-4.484,35.594,20.846,43.411,3.778l4.411-10.722c8.066-15.083,12.036-20.013,25.1-20.833.513-.032,1.018-.048,1.522-.048,21.106,0,34.231,27.825,50.145,27.825" transform="translate(-1.711 -188.39)" fill="#2c276b"/>
</svg>
