<svg xmlns="http://www.w3.org/2000/svg" width="245.38" height="78.582" viewBox="0 0 245.38 78.582">
  <path id="group_7789" data-name="group 7789" d="M124.586,27.825h89.939c7.071,0,17.184-4.4,22.006-6.944,10.525-5.555,11.481,9.722,3.827,11.111-5.028.913-12.57.5-22.247.1-12.55-.53-28.691-1.06-47.6,1.293C150.5,35.866,138.938,66.712,126.5,68.1c-6.219.695-11.721-2.778-18.179-6.25S94.447,54.907,84.4,55.6,64.7,62.143,55.352,69.17c-.029.028-.048.041-.076.07-1.253.944-2.507,1.917-3.75,2.889,0,0-.01,0-.019.014-2.105,1.652-4.191,3.347-6.267,5.028-.287.236-.574.458-.861.694C29.987,85.031,18.3,36.336,0,27.825,32.617,23.34,35.594,48.671,43.411,31.6l4.411-10.722C55.888,5.8,59.859.868,72.919.048,73.432.016,73.937,0,74.441,0c21.106,0,34.231,27.825,50.145,27.825" fill="#2c276b"/>
</svg>
