<svg xmlns="http://www.w3.org/2000/svg" width="468.909" height="99.815" viewBox="0 0 468.909 99.815">
  <path id="group_7789" data-name="group 7789" d="M247.713,220.942H63.275c-14.5,0-35.239-5.151-45.128-8.124-21.583-6.5-23.545,11.374-7.848,13,10.311,1.068,25.777.59,45.622.112,25.736-.62,58.837-1.24,97.613,1.512,41.047,2.909,82.452,59.119,107.96,60.744,12.754.813,22.662-24.078,50.637-44.619s110.451-16,156.78-18.33c-99.834-2.07-88.46-35.831-115.242-36.79-1.052-.038-2.087-.056-3.12-.056-43.282,0-70.2,32.552-102.833,32.552" transform="translate(0 -188.39)" fill="#afe6df"/>
</svg>
