<svg xmlns="http://www.w3.org/2000/svg" width="301.4" height="60.805" viewBox="0 0 301.4 60.805">
  <path id="group_7792" data-name="group 7792" d="M1743.6,236.572c9.693,1.556,19.675-3.826,31.048-9.207,21.487-10.167,47.943-20.334,86.805,16.277,15.542-6.75,32.431-13.688,52.367-15.187a276.151,276.151,0,0,1,51.165,1.205c11.32,1.188,19.732,2.376,25.031,1.7,2.389-.3,3.512-2.171,3.525-4.4v-.08c-.03-4.816-5.206-11.228-13.964-7.16-15.656,7.273-40.708,4.364-60.539,4.364-53.483,0-86.634-26.184-108.554-29.093-11.159-1.481-21.506,7.594-32.282,16.669-10.391,8.751-21.179,17.5-33.477,16.788-23.558-1.368-33.276-38.767-52.586-45.618,22.378,18.416,24.362,49.371,51.458,53.735" transform="translate(-1692.14 -182.837)" fill="#afe6df"/>
</svg>
