<svg xmlns="http://www.w3.org/2000/svg" width="353.909" height="99.815" viewBox="0 0 353.909 99.815">
  <path id="group_7789" data-name="group 7789" d="M186.961,220.942H47.757c-10.944,0-26.6-5.151-34.06-8.124-16.29-6.5-17.771,11.374-5.924,13,7.782,1.068,19.455.59,34.433.112,19.424-.62,44.408-1.24,73.673,1.512,30.98,2.909,62.231,59.119,81.482,60.744,9.626.813,17.1-24.078,38.218-44.619s83.363-16,118.33-18.33c-75.35-2.07-66.765-35.831-86.979-36.79-.794-.038-1.575-.056-2.355-.056-32.667,0-52.981,32.552-77.613,32.552" transform="translate(0 -188.39)" fill="#afe6df"/>
</svg>
