<svg xmlns="http://www.w3.org/2000/svg" width="460.086" height="207.988" viewBox="0 0 460.086 207.988">
  <path id="group_7788" data-name="group 7788" d="M701.571,239.881c-22.515,13.049-48.156,9.227-70.016.053,17.587,11.929,34.507,23.059,51.12,23.059,26.324,0,40.6-27.218,65.409-24.889,37.792,3.556,61.049,60.446,82.851,58.668S867.274,254.1,891.984,254.1c30.553,0,39.245,58.668,87.212,58.668s62.5-90.669,98.84-99.558a28.856,28.856,0,0,1,13.6-.036c-43.751-11.29-57.923-31.805-67.24-52.7-.015-.017-.015-.035-.03-.053a202.682,202.682,0,0,1-10.509-24.836c0-.018-.015-.018-.015-.035-.96-2.631-1.9-5.316-2.849-8.018v-.018c-22.118-32.978-46.629,9.563-73.213,52.1-20.394,32.634-42.008,65.269-64.7,63.81-27.617-1.778-34.885-40.89-57.807-90.865-11.962-20.232-23.794-42.846-42.807-47.788-40.306,1.618-30.51,120.056-70.9,135.1" transform="translate(-631.555 -104.784)" fill="#afe6df"/>
</svg>
