<svg xmlns="http://www.w3.org/2000/svg" width="274.28" height="94.823" viewBox="0 0 274.28 94.823">
  <path id="group_7789" data-name="group 7789" d="M134.086,217.533H34.251c-7.849,0-19.075-4.611-24.428-7.273C-1.86,204.442-2.922,220.443,5.575,221.9c5.581.957,13.953.528,24.695.1,13.931-.555,31.848-1.11,52.837,1.354,22.219,2.6,45.186,58.392,58.993,59.847,6.9.727,2.873-26.39,10.042-30.026s15.4-7.273,26.552-6.546,21.868,6.851,32.245,14.212c.032.029.053.043.085.073,1.391.989,2.783,2.008,4.163,3.026a.03.03,0,0,1,.022.015c2.337,1.731,4.652,3.506,6.957,5.266.319.247.637.48.956.727,15.973,7.506,34.709,10.633,51.16-.043-24.417,10.183-41.41-30.533-50.088-48.411v-.015c-8.953-15.8-18.257-32.177-32.755-33.035-.57-.034-1.13-.05-1.689-.05-23.428,0-38,29.143-55.663,29.143" transform="translate(0 -188.39)" fill="#afe6df"/>
</svg>
