<svg id="group_982" data-name="group 982" xmlns="http://www.w3.org/2000/svg" xmlns:xlink="http://www.w3.org/1999/xlink" width="243.335" height="75.047" viewBox="0 0 243.335 75.047">
  <defs>
    <clipPath id="clip-path">
      <path id="group_7789" data-name="group 7789" d="M134.086,213.376H34.251c-7.849,0-19.075-3.953-24.428-6.236-11.683-4.988-12.745,8.73-4.248,9.977,5.581.82,13.953.453,24.695.086,13.931-.476,31.848-.952,52.837,1.161,22.219,2.233,37.172,43.809,50.979,45.056,6.9.624,10.886-16.372,18.056-19.49s15.4-6.236,26.552-5.612,21.868,5.874,32.245,12.185c.032.025.053.037.085.063,1.391.848,2.783,1.721,4.163,2.594a.031.031,0,0,1,.022.013c2.337,1.484,4.652,3.006,6.957,4.515.319.212.637.411.956.623,15.973,6.435,21.833-31.666,19.841-54.045-24.417,8.73-37.026-15.1-51.523-15.832-.57-.029-1.13-.043-1.689-.043-23.428,0-38,24.986-55.663,24.986" transform="translate(0 -188.39)" fill="#afe6df"/>
    </clipPath>
  </defs>
  <g id="group_981" data-name="group 981" clip-path="url(#clip-path)">
    <rect id="group_335" data-name="group 335" width="277.202" height="79.037" transform="translate(-2.922 0)" fill="#afe6df"/>
  </g>
</svg>
