<svg id="group_1002" data-name="group 1002" xmlns="http://www.w3.org/2000/svg" xmlns:xlink="http://www.w3.org/1999/xlink" width="44.615" height="7.583" viewBox="0 0 44.615 7.583">
  <defs>
    <clipPath id="clip-path">
      <path id="group_7789" data-name="group 7789" d="M63.054,189.827H82.922a12.751,12.751,0,0,1,4.861,1.534c2.325,1.227,2.536-2.148.845-2.454a26.553,26.553,0,0,0-4.914-.021A61.124,61.124,0,0,1,73.2,188.6c-4.422-.549-24.689.123-28.077.393v0c1.782,3.332,3.633,6.786,6.518,6.967.113.007.225.011.336.011,4.662,0,7.562-6.147,11.077-6.147" transform="translate(-45.123 -188.39)" fill="#2c276b"/>
    </clipPath>
  </defs>
  <g id="group_981" data-name="group 981" transform="translate(0)" clip-path="url(#clip-path)">
    <rect id="group_335" data-name="group 335" width="55.164" height="19.443" transform="translate(-9.968 -11.86)" fill="#2c276b"/>
  </g>
</svg>
