<svg xmlns="http://www.w3.org/2000/svg" width="384.21" height="99.815" viewBox="0 0 384.21 99.815">
  <path id="group_7789" data-name="group 7789" d="M202.969,220.942H51.846c-11.881,0-28.874-5.151-36.977-8.124-17.685-6.5-19.292,11.374-6.431,13,8.448,1.068,21.121.59,37.381.112,21.087-.62,48.21-1.24,79.981,1.512,33.633,2.909,67.559,59.119,88.459,60.744,10.45.813,18.569-24.078,41.49-44.619s90.5-16,128.461-18.33c-81.8-2.07-72.481-35.831-94.426-36.79-.862-.038-1.71-.056-2.557-.056-35.464,0-57.517,32.552-84.259,32.552" transform="translate(0 -188.39)" fill="#2a2967"/>
</svg>
