<svg id="group_1058" data-name="group 1058" xmlns="http://www.w3.org/2000/svg" xmlns:xlink="http://www.w3.org/1999/xlink" width="53.753" height="19.336" viewBox="0 0 53.753 19.336">
  <defs>
    <clipPath id="clip-path">
      <path id="group_7789" data-name="group 7789" d="M29.62,194.828H7.566a14.759,14.759,0,0,1-5.4-1.607c-2.581-1.285-2.815,2.249-.938,2.571a31.23,31.23,0,0,0,5.455.022,71.883,71.883,0,0,1,11.672.3c4.908.575,8.211,11.288,11.261,11.609,1.525.161,2.4-4.218,3.989-5.022a10.764,10.764,0,0,1,5.865-1.446c2.466.161,4.831,1.513,7.123,3.139l.019.016c.307.219.615.443.92.668a.007.007,0,0,1,0,0c.516.382,1.028.774,1.537,1.163.07.055.141.106.211.161,3.529,1.658,4.823-8.159,4.383-13.925-5.394,2.249-8.179-3.89-11.382-4.079-.126-.008-.25-.011-.373-.011-5.175,0-8.394,6.438-12.3,6.438" transform="translate(0 -188.39)" fill="#2c276b"/>
    </clipPath>
  </defs>
  <g id="group_981" data-name="group 981" clip-path="url(#clip-path)">
    <rect id="group_335" data-name="group 335" width="61.234" height="20.364" transform="translate(-0.645 0)" fill="#2c276b"/>
  </g>
</svg>
