<svg xmlns="http://www.w3.org/2000/svg" width="375.79" height="99.815" viewBox="0 0 375.79 99.815">
  <path id="group_7789" data-name="group 7789" d="M198.521,220.942H50.71c-11.62,0-28.241-5.151-36.166-8.124-17.3-6.5-18.869,11.374-6.29,13,8.263,1.068,20.658.59,36.562.112,20.625-.62,47.153-1.24,78.228,1.512,32.9,2.909,66.078,59.119,86.52,60.744,10.221.813,18.162-24.078,40.581-44.619s88.517-16,125.646-18.33c-80.009-2.07-70.893-35.831-92.357-36.79-.843-.038-1.673-.056-2.5-.056-34.687,0-56.257,32.552-82.412,32.552" transform="translate(0 -188.39)" fill="#afe6df"/>
</svg>
