<svg xmlns="http://www.w3.org/2000/svg" width="128.392" height="34.786" viewBox="0 0 128.392 34.786">
  <path id="group_7789" data-name="group 7789" d="M62.767,199.745H16.033c-3.674,0-8.929-1.8-11.435-2.834-5.469-2.267-5.966,3.967-1.989,4.534,2.613.373,6.531.206,11.56.039a182.872,182.872,0,0,1,24.733.528c10.4,1.015,20.372,20.591,26.836,21.157,3.232.283,2.124-8.122,5.48-9.539a26.488,26.488,0,0,1,12.429-2.55c5.225.283,10.237,2.669,15.094,5.537l.04.028c.651.385,1.3.782,1.949,1.179a.015.015,0,0,1,.01.006c1.094.674,2.178,1.366,3.256,2.052.149.1.3.187.448.283,7.477,2.925,16.247,4.143,23.948-.017-11.43,3.967-19.384-11.9-23.446-18.862v-.006c-4.191-6.155-8.546-12.536-15.333-12.871-.267-.013-.529-.02-.791-.02-10.967,0-17.787,11.355-26.056,11.355" transform="translate(0 -188.39)" fill="#2c276b"/>
</svg>
