<svg xmlns="http://www.w3.org/2000/svg" width="219.067" height="70.155" viewBox="0 0 219.067 70.155">
  <path id="group_7789" data-name="group 7789" d="M111.226,45.314h80.294c6.312,0,15.341,3.93,19.646,6.2,9.4,4.959,10.25-8.679,3.417-9.919-4.489-.815-11.222-.45-19.861-.086-11.2.473-25.615.946-42.5-1.154-17.87-2.22-28.188-29.757-39.293-31-5.552-.62-10.464,2.48-16.23,5.579s-12.386,6.2-21.355,5.58S57.762,14.676,49.416,8.4c-.026-.025-.043-.037-.068-.062C48.229,7.5,47.11,6.629,46,5.761c0,0-.009,0-.017-.012C44.1,4.273,42.241,2.76,40.388,1.26c-.256-.211-.512-.409-.769-.62C26.772-5.758,16.336,37.716,0,45.314c29.12,4,31.777-18.611,38.756-3.373l3.938,9.572C49.9,64.978,53.44,69.38,65.1,70.112c.458.029.909.043,1.358.043,18.843,0,30.56-24.841,44.768-24.841" fill="#2c276b"/>
</svg>
