<svg xmlns="http://www.w3.org/2000/svg" width="325.297" height="99.815" viewBox="0 0 325.297 99.815">
  <path id="group_7789" data-name="group 7789" d="M171.846,220.942H43.9c-10.059,0-24.446-5.151-31.307-8.124-14.973-6.5-16.334,11.374-5.445,13,7.153,1.068,17.882.59,31.649.112,17.854-.62,40.817-1.24,67.717,1.512,28.476,2.909,57.2,59.119,74.895,60.744,8.848.813,15.722-24.078,35.128-44.619s76.624-16,108.763-18.33c-69.258-2.07-61.367-35.831-79.947-36.79-.73-.038-1.448-.056-2.165-.056-30.026,0-48.7,32.552-71.339,32.552" transform="translate(0 -188.39)" fill="#2c276b"/>
</svg>
