<svg xmlns="http://www.w3.org/2000/svg" width="253.818" height="99.815" viewBox="0 0 253.818 99.815">
  <path id="group_7789" data-name="group 7789" d="M134.086,220.942H34.251c-7.849,0-19.075-5.151-24.428-8.124-11.683-6.5-12.745,11.374-4.248,13,5.581,1.068,13.953.59,24.695.112,13.931-.62,31.848-1.24,52.837,1.512,22.219,2.909,44.631,59.119,58.438,60.744,6.9.813,12.267-24.078,27.409-44.619s59.787-16,84.864-18.33c-54.04-2.07-47.883-35.831-62.38-36.79-.57-.038-1.13-.056-1.689-.056-23.428,0-38,32.552-55.663,32.552" transform="translate(0 -188.39)" fill="#afe6df"/>
</svg>
